<svg xmlns="http://www.w3.org/2000/svg" width="32" height="32" viewBox="0 0 32 32">
  <path fill="#FFE5DF" fill-rule="evenodd" d="M26.4982456,2.83185841 C26.6329831,1.87337846 26.9323953,1.16179039 27.3964912,0.697072839 C27.8605871,0.232355289 28.4893528,0 29.282807,0 C30.0762613,0 30.7274828,0.272291355 31.2364912,0.816882233 C31.7454996,1.36147311 32,2.06943063 32,2.94077604 C32,3.7830766 31.7454996,4.59995066 31.2364912,5.39142274 C30.7274828,6.18289481 29.9864376,6.92715785 29.0133333,7.62423417 C28.1599957,8.23417596 27.2430458,8.70614764 26.2624561,9.04016338 C25.2818664,9.37417912 24.3424606,9.54118448 23.4442105,9.54118448 C22.9052605,9.54118448 22.3101787,9.46131235 21.6589474,9.30156569 C21.007716,9.14181903 20.3153253,8.89494154 19.5817544,8.5609258 C19.072746,9.6791524 18.6011718,10.6957068 18.1670175,11.6106195 C17.7328633,12.5255321 17.3136862,13.4041256 16.9094737,14.2464261 L16.64,13.2008169 C16.9394167,12.3585163 17.2500569,11.5125978 17.5719298,10.6630361 C17.8938028,9.81347431 18.2268989,8.96755583 18.5712281,8.12525528 C14.4093359,5.62739845 11.6023464,4.05173914 10.1501754,3.39823009 C8.69800444,2.74472103 7.53029681,2.41797141 6.64701754,2.41797141 C5.49426324,2.41797141 4.49497499,2.79917931 3.64912281,3.56160654 C2.80327062,4.32403376 2.38035088,5.22077996 2.38035088,6.25187202 C2.38035088,6.62945503 2.4814025,7.02881568 2.68350877,7.44996596 C2.88561505,7.87111624 3.1812846,8.30678241 3.57052632,8.75697754 C3.42081796,9.30882963 3.1887735,9.72634304 2.87438596,10.0095303 C2.55999843,10.2927175 2.17824786,10.4343091 1.72912281,10.4343091 C1.22011441,10.4343091 0.804679972,10.2455204 0.482807018,9.86793737 C0.160934063,9.49035436 0,8.99659937 0,8.38665759 C0,7.55887946 0.224559158,6.70206933 0.673684211,5.8162015 C1.12280926,4.93033367 1.76654552,4.08078464 2.60491228,3.26752893 C3.45824988,2.4397508 4.3415159,1.80803485 5.25473684,1.37236215 C6.16795778,0.936689449 7.0512238,0.718856365 7.9045614,0.718856365 C8.74292817,0.718856365 9.64865011,0.929428346 10.6217544,1.35057862 C11.5948587,1.7717289 12.6652573,2.42522816 13.8329825,3.31109598 L13.2715789,1.78624915 C13.7506457,1.17630737 14.2521611,0.726118993 14.7761404,0.435670524 C15.3001196,0.145222056 15.8914587,0 16.5501754,0 C17.6580172,0 18.6161363,0.446557822 19.4245614,1.33968686 C20.2329865,2.2328159 20.637193,3.31835077 20.637193,4.59632403 C20.637193,4.95938462 20.5960238,5.36237582 20.5136842,5.80530973 C20.4313446,6.24824365 20.3078371,6.73836809 20.1431579,7.27569775 C20.9964955,7.66780319 21.7674819,7.9582473 22.4561404,8.1470388 C23.1447988,8.33583031 23.7660791,8.43022464 24.32,8.43022464 C25.3979001,8.43022464 26.2961368,8.16156384 27.0147368,7.62423417 C27.7333369,7.08690451 28.0926316,6.41888305 28.0926316,5.62014976 C28.0926316,5.12638737 27.9728667,4.66893789 27.7333333,4.24778761 C27.4938,3.82663733 27.0821082,3.35466565 26.4982456,2.83185841 Z M16.8645614,15.5752212 C17.5831615,14.2101134 18.4252583,13.1862979 19.3908772,12.503744 C20.3564961,11.8211901 21.445608,11.4799183 22.6582456,11.4799183 C24.2750958,11.4799183 25.6074801,12.0136094 26.6554386,13.0810075 C27.7033971,14.1484056 28.2273684,15.5171235 28.2273684,17.1872022 C28.2273684,18.6394445 27.7857354,19.9246597 26.9024561,21.0428863 C26.0191769,22.1611129 24.6044542,23.2067117 22.6582456,24.1797141 C22.3438581,24.3394607 21.8722838,24.571816 21.2435088,24.8767869 C18.503846,26.183805 17.1340351,27.3964092 17.1340351,28.5146358 C17.1340351,29.1971897 17.3960208,29.7671863 17.92,30.2246426 C18.4439792,30.682099 19.0877155,30.9108237 19.8512281,30.9108237 C20.8692449,30.9108237 21.6963711,30.5477686 22.3326316,29.8216474 C22.9688921,29.0955262 23.3543853,28.0789718 23.4891228,26.7719537 C23.7286562,26.5976846 23.9644433,26.4633542 24.1964912,26.3689585 C24.4285392,26.2745627 24.6718116,26.2273656 24.9263158,26.2273656 C25.4802367,26.2273656 25.9480683,26.3980015 26.3298246,26.7392784 C26.7115809,27.0805554 26.9024561,27.4908077 26.9024561,27.9700477 C26.9024561,29.0592294 26.2025801,30.0031728 24.802807,30.8019061 C23.4030339,31.6006393 21.6926417,32 19.6715789,32 C17.6954287,32 15.8465583,31.6587282 14.1249123,30.9761743 C12.4032662,30.2936204 10.8463228,29.2915882 9.45403509,27.9700477 C8.07671826,26.677552 7.02129022,25.196287 6.2877193,23.5262083 C5.55414838,21.8561296 5.18736842,20.0989427 5.18736842,18.254595 C5.18736842,15.8293503 5.77122223,13.8761136 6.93894737,12.3948264 C8.10667251,10.9135392 9.64116008,10.1729067 11.5424561,10.1729067 C12.9347438,10.1729067 14.0201131,10.6230951 14.7985965,11.5234854 C15.5770799,12.4238756 15.9812864,13.6873075 16.0112281,15.3138189 L16.8645614,15.5752212 Z M18.9754386,6.7311096 C19.0502928,6.39709386 19.1101752,6.08849699 19.1550877,5.80530973 C19.2000002,5.52212248 19.2224561,5.28613664 19.2224561,5.09734513 C19.2224561,4.08077549 18.9492425,3.23848757 18.402807,2.57045609 C17.8563715,1.90242462 17.1789514,1.56841389 16.3705263,1.56841389 C15.9214013,1.56841389 15.5546213,1.71363594 15.2701754,2.00408441 C14.9857296,2.29453288 14.8435088,2.67211022 14.8435088,3.13682777 C14.8435088,3.74676956 15.1803475,4.34581054 15.8540351,4.93396869 C16.5277227,5.52212683 17.5681801,6.12116781 18.9754386,6.7311096 Z"/>
</svg>
